<?xml version="1.0" encoding="UTF-8" standalone="no"?>
<!-- Generator: Adobe Illustrator 19.0.0, SVG Export Plug-In . SVG Version: 6.00 Build 0)  -->

<svg
   xmlns:dc="http://purl.org/dc/elements/1.1/"
   xmlns:cc="http://creativecommons.org/ns#"
   xmlns:rdf="http://www.w3.org/1999/02/22-rdf-syntax-ns#"
   xmlns:svg="http://www.w3.org/2000/svg"
   xmlns="http://www.w3.org/2000/svg"
   xmlns:sodipodi="http://sodipodi.sourceforge.net/DTD/sodipodi-0.dtd"
   xmlns:inkscape="http://www.inkscape.org/namespaces/inkscape"
   version="1.1"
   id="Capa_1"
   x="0px"
   y="0px"
   viewBox="0 0 48 48"
   xml:space="preserve"
   sodipodi:docname="map.svg"
   width="48"
   height="48"
   inkscape:version="0.92.2 2405546, 2018-03-11"><metadata
   id="metadata61"><rdf:RDF><cc:Work
       rdf:about=""><dc:format>image/svg+xml</dc:format><dc:type
         rdf:resource="http://purl.org/dc/dcmitype/StillImage" /><dc:title></dc:title></cc:Work></rdf:RDF></metadata><defs
   id="defs59" /><sodipodi:namedview
   pagecolor="#ffffff"
   bordercolor="#666666"
   borderopacity="1"
   objecttolerance="10"
   gridtolerance="10"
   guidetolerance="10"
   inkscape:pageopacity="0"
   inkscape:pageshadow="2"
   inkscape:window-width="1280"
   inkscape:window-height="968"
   id="namedview57"
   showgrid="false"
   fit-margin-top="0"
   fit-margin-left="0"
   fit-margin-right="0"
   fit-margin-bottom="0"
   inkscape:zoom="1.9666667"
   inkscape:cx="86.99798"
   inkscape:cy="31.37627"
   inkscape:window-x="0"
   inkscape:window-y="24"
   inkscape:window-maximized="1"
   inkscape:current-layer="Capa_1" />
<g
   id="g6"
   transform="translate(-56,-335.999)">
	<g
   id="g4">
		
	</g>
</g>
<g
   id="g12"
   transform="translate(-56,-335.999)">
	<g
   id="g10">
		
	</g>
</g>
<g
   id="g18"
   transform="translate(-56,-335.999)">
	<g
   id="g16">
		
	</g>
</g>
<g
   id="g24"
   transform="matrix(0.12820513,0,0,0.12820513,-3.1794876,-5.743462)">
	<g
   id="g22">
		<path
   d="m 328,215.999 v -40 h -16 v 40 h -16 v -56 h -16 v 24 h -40 v 16 h 40 v 48 h -48 c -4.418,0 -8,3.582 -8,8 v 32 h -32 v -128 h 32 c 4.418,0 8,-3.582 8,-8 v -56 h 40 v -16 h -48 c -4.418,0 -8,3.582 -8,8 v 56 h -24 v -16 c 0,-4.418 -3.582,-8 -8,-8 H 56 v 16 h 40 v 24 H 72 v 16 h 24 v 32 h 16 v -72 h 64 v 160 c 0,4.418 3.582,8 8,8 h 40 v 32 h -88 v -64 c 0,-4.418 -3.582,-8 -8,-8 H 72 v 16 h 48 v 56 H 72 c -4.418,0 -8,3.582 -8,8 v 40 h 16 v -32 h 152 c 4.418,0 8,-3.582 8,-8 v -80 h 40 v 8 h 16 v -40 h 40 v 24 h 16 v -24 h 16 v -16 z"
   id="path20"
   inkscape:connector-curvature="0" />
	</g>
</g>
<g
   id="g26"
   transform="translate(-56,-335.999)">
</g>
<g
   id="g28"
   transform="translate(-56,-335.999)">
</g>
<g
   id="g30"
   transform="translate(-56,-335.999)">
</g>
<g
   id="g32"
   transform="translate(-56,-335.999)">
</g>
<g
   id="g34"
   transform="translate(-56,-335.999)">
</g>
<g
   id="g36"
   transform="translate(-56,-335.999)">
</g>
<g
   id="g38"
   transform="translate(-56,-335.999)">
</g>
<g
   id="g40"
   transform="translate(-56,-335.999)">
</g>
<g
   id="g42"
   transform="translate(-56,-335.999)">
</g>
<g
   id="g44"
   transform="translate(-56,-335.999)">
</g>
<g
   id="g46"
   transform="translate(-56,-335.999)">
</g>
<g
   id="g48"
   transform="translate(-56,-335.999)">
</g>
<g
   id="g50"
   transform="translate(-56,-335.999)">
</g>
<g
   id="g52"
   transform="translate(-56,-335.999)">
</g>
<g
   id="g54"
   transform="translate(-56,-335.999)">
</g>
</svg>