<?xml version="1.0" encoding="UTF-8" standalone="no"?>
<svg
   xmlns:dc="http://purl.org/dc/elements/1.1/"
   xmlns:cc="http://creativecommons.org/ns#"
   xmlns:rdf="http://www.w3.org/1999/02/22-rdf-syntax-ns#"
   xmlns:svg="http://www.w3.org/2000/svg"
   xmlns="http://www.w3.org/2000/svg"
   xmlns:sodipodi="http://sodipodi.sourceforge.net/DTD/sodipodi-0.dtd"
   xmlns:inkscape="http://www.inkscape.org/namespaces/inkscape"
   version="1.1"
   width="24"
   height="24"
   viewBox="0 0 24 24"
   id="svg4"
   sodipodi:docname="icon_chip_lineas_metro_12.svg"
   inkscape:version="0.92.2 2405546, 2018-03-11">
  <metadata
     id="metadata10">
    <rdf:RDF>
      <cc:Work
         rdf:about="">
        <dc:format>image/svg+xml</dc:format>
        <dc:type
           rdf:resource="http://purl.org/dc/dcmitype/StillImage" />
      </cc:Work>
    </rdf:RDF>
  </metadata>
  <defs
     id="defs8" />
  <sodipodi:namedview
     pagecolor="#ffffff"
     bordercolor="#666666"
     borderopacity="1"
     objecttolerance="10"
     gridtolerance="10"
     guidetolerance="10"
     inkscape:pageopacity="0"
     inkscape:pageshadow="2"
     inkscape:window-width="1280"
     inkscape:window-height="968"
     id="namedview6"
     showgrid="false"
     inkscape:zoom="19.666667"
     inkscape:cx="4.734757"
     inkscape:cy="11.897278"
     inkscape:window-x="0"
     inkscape:window-y="24"
     inkscape:window-maximized="1"
     inkscape:current-layer="svg4" />
  <path
     d="M 12 2 C 6.4771525 2 2 6.4771525 2 12 C 2 17.522847 6.4771525 22 12 22 C 17.522847 22 22 17.522847 22 12 C 22 6.4771525 17.522847 2 12 2 z M 11.796875 7.4570312 L 15.796875 7.4570312 A 2 2 0 0 1 17.796875 9.4570312 L 17.796875 11.457031 A 2 2 0 0 1 15.796875 13.457031 L 13.796875 13.457031 L 13.796875 15.457031 L 17.796875 15.457031 L 17.796875 17.457031 L 13.796875 17.457031 L 11.796875 17.457031 L 11.796875 13.457031 A 2 2 0 0 1 13.796875 11.457031 L 15.796875 11.457031 L 15.796875 9.4570312 L 11.796875 9.4570312 L 11.796875 7.4570312 z M 5.7285156 7.609375 L 9.7285156 7.609375 L 9.7285156 17.609375 L 7.7285156 17.609375 L 7.7285156 9.609375 L 5.7285156 9.609375 L 5.7285156 7.609375 z "
     id="path2"
     style="fill:#000000" />
</svg>
