<?xml version="1.0" encoding="UTF-8" standalone="no"?>
<!-- Created with Inkscape (http://www.inkscape.org/) -->

<svg
   xmlns:dc="http://purl.org/dc/elements/1.1/"
   xmlns:cc="http://creativecommons.org/ns#"
   xmlns:rdf="http://www.w3.org/1999/02/22-rdf-syntax-ns#"
   xmlns:svg="http://www.w3.org/2000/svg"
   xmlns="http://www.w3.org/2000/svg"
   xmlns:sodipodi="http://sodipodi.sourceforge.net/DTD/sodipodi-0.dtd"
   xmlns:inkscape="http://www.inkscape.org/namespaces/inkscape"
   version="1.1"
   id="svg1158"
   width="48"
   height="48"
   viewBox="0 0 48 48"
   sodipodi:docname="icon_trenligero.svg"
   inkscape:version="0.92.2 2405546, 2018-03-11">
  <metadata
     id="metadata1164">
    <rdf:RDF>
      <cc:Work
         rdf:about="">
        <dc:format>image/svg+xml</dc:format>
        <dc:type
           rdf:resource="http://purl.org/dc/dcmitype/StillImage" />
        <dc:title></dc:title>
      </cc:Work>
    </rdf:RDF>
  </metadata>
  <defs
     id="defs1162" />
  <sodipodi:namedview
     pagecolor="#ffffff"
     bordercolor="#666666"
     borderopacity="1"
     objecttolerance="10"
     gridtolerance="10"
     guidetolerance="10"
     inkscape:pageopacity="0"
     inkscape:pageshadow="2"
     inkscape:window-width="1280"
     inkscape:window-height="968"
     id="namedview1160"
     showgrid="false"
     fit-margin-top="0"
     fit-margin-left="0"
     fit-margin-right="0"
     fit-margin-bottom="0"
     inkscape:zoom="2.4027778"
     inkscape:cx="116.91113"
     inkscape:cy="110.57849"
     inkscape:window-x="0"
     inkscape:window-y="24"
     inkscape:window-maximized="1"
     inkscape:current-layer="svg1158" />
  <path
     style="fill:#000000;stroke-width:0.17171396"
     d="m 21.944108,43.808916 c -0.472213,-0.07898 -1.360832,-0.222351 -1.974709,-0.318602 -1.068398,-0.167519 -1.467803,-0.279644 -3.004995,-0.843599 -1.03197,-0.378602 -3.158167,-1.419245 -3.27024,-1.600582 -0.05415,-0.08761 -0.248432,-0.159296 -0.431744,-0.159296 -0.183313,0 -0.333295,-0.06426 -0.333295,-0.142795 0,-0.07854 -0.385412,-0.392533 -0.856469,-0.697769 C 10.397582,38.960862 7.6450876,35.955169 6.7490196,34.232921 6.5401851,33.83154 6.2998509,33.503137 6.2149439,33.503137 c -0.084907,0 -0.1543765,-0.193178 -0.1543765,-0.429285 0,-0.236107 -0.064307,-0.429285 -0.1429036,-0.429285 -0.078597,0 -0.2266922,-0.251131 -0.3291003,-0.55807 C 5.4861552,31.779558 5.2428954,31.103434 5.0479863,30.584 4.1938931,28.307835 3.9999999,27.07447 3.9999999,23.917709 c 0,-2.220968 0.070864,-3.255797 0.2715089,-3.964883 0.6889903,-2.434907 1.0211828,-3.418907 1.390507,-4.118873 0.2192034,-0.415447 0.3985516,-0.893833 0.3985516,-1.063078 0,-0.169244 0.066445,-0.348783 0.1476544,-0.398974 0.08121,-0.05019 0.5913245,-0.751212 1.1335881,-1.557825 0.9456313,-1.406619 2.5287687,-3.1543248 3.9297481,-4.3382478 0.363213,-0.306939 0.683808,-0.55807 0.712436,-0.55807 0.02863,0 0.46549,-0.279295 0.970804,-0.620657 0.881731,-0.595647 3.598678,-1.9550528 3.907421,-1.9550528 0.08183,0 0.370114,-0.1154313 0.640627,-0.2565132 0.270513,-0.1410819 0.656265,-0.2569888 0.857229,-0.2575709 0.200962,-5.152e-4 0.625954,-0.106801 0.944427,-0.2360432 1.180014,-0.4788725 4.711078,-0.6318816 7.36174,-0.3190033 2.872057,0.3390131 4.186139,0.7876622 7.631456,2.6055034 0.277929,0.146644 0.702132,0.440484 0.942672,0.65298 0.24054,0.212496 0.532246,0.386357 0.648236,0.386357 0.373283,0 3.887636,3.6557518 4.706224,4.8955758 0.975408,1.477347 2.03893,3.475621 2.046271,3.844786 0.003,0.151041 0.118912,0.424614 0.257571,0.607939 0.13866,0.183326 0.25211,0.573546 0.25211,0.867156 0,0.29361 0.06933,0.607244 0.15407,0.696964 0.264849,0.280418 0.704945,3.623024 0.694982,5.278496 -0.01108,1.840892 -0.690321,5.861576 -1.137434,6.732896 -0.09692,0.188885 -0.313233,0.652513 -0.480684,1.030283 -0.927267,2.091928 -1.903222,3.594626 -3.505535,5.397549 -1.139191,1.281819 -3.256047,3.064103 -4.458551,3.753873 -2.229433,1.278828 -4.004515,1.926066 -7.181761,2.618639 -1.056194,0.230229 -4.301388,0.332643 -5.291761,0.167001 z m 5.634296,-3.189994 c 0.48996,-0.147354 1.315827,-0.395249 1.835262,-0.550881 0.519434,-0.155631 1.066417,-0.382789 1.215518,-0.504797 0.149101,-0.122008 0.429407,-0.221832 0.622903,-0.221832 0.193494,0 0.448003,-0.115907 0.565574,-0.257571 0.117571,-0.141664 0.280824,-0.257571 0.362785,-0.257571 0.326094,0 2.537369,-1.652847 3.646825,-2.725867 1.120375,-1.08358 2.495928,-2.731023 2.742116,-3.284122 0.06305,-0.141664 0.186835,-0.373478 0.275063,-0.515142 0.08823,-0.141664 0.204137,-0.373478 0.257571,-0.515142 0.05344,-0.141664 0.169343,-0.373477 0.257571,-0.515141 0.08823,-0.141664 0.204137,-0.373478 0.257571,-0.515142 0.05344,-0.141664 0.167275,-0.373478 0.252979,-0.515142 0.186238,-0.307844 0.593657,-1.712524 0.956523,-3.297856 0.507091,-2.215443 0.252254,-6.017476 -0.524578,-7.826449 -0.133186,-0.310143 -0.242156,-0.667358 -0.242156,-0.793813 0,-0.206481 -0.469657,-1.320266 -0.839434,-1.990713 -0.07814,-0.141664 -0.282234,-0.52802 -0.453557,-0.858569 -1.033709,-1.994437 -3.490062,-4.427907 -6.190073,-6.1324088 -0.997744,-0.629869 -2.754524,-1.423005 -3.15193,-1.423005 -0.25175,0 -0.542156,-0.08443 -0.645348,-0.187619 -0.247196,-0.247197 -3.658214,-0.837983 -4.86077,-0.841882 -1.148342,-0.0037 -3.825596,0.454427 -4.599174,0.787042 -0.310143,0.133353 -0.716865,0.242459 -0.903828,0.242459 -0.186963,0 -0.474108,0.07426 -0.638101,0.165025 -0.163994,0.09077 -0.723162,0.36442 -1.242596,0.608123 -1.113338,0.522344 -1.331641,0.652496 -2.519272,1.5019858 -1.122578,0.802958 -3.834146,3.497236 -3.834146,3.809699 0,0.127513 -0.115907,0.276319 -0.2575709,0.33068 -0.1416641,0.05436 -0.257571,0.20771 -0.257571,0.340773 0,0.133065 -0.096809,0.32228 -0.2151318,0.420479 -0.1183229,0.0982 -0.471542,0.706514 -0.784932,1.351808 -0.3133883,0.645296 -0.6802064,1.392023 -0.8151503,1.659394 -0.1349442,0.267371 -0.245353,0.624973 -0.245353,0.794671 0,0.169698 -0.1213862,0.599059 -0.2697472,0.954138 -0.5684328,1.36045 -0.5039221,6.403112 0.1109013,8.668898 0.8550495,3.151084 3.1609859,6.593589 5.7246889,8.546321 0.57483,0.437839 1.08378,0.843412 1.131001,0.901276 0.04722,0.05786 0.549485,0.369263 1.116141,0.692001 1.762059,1.003573 2.829589,1.435219 4.430903,1.791591 0.548141,0.121991 1.043965,0.269143 1.101831,0.327007 0.05786,0.05787 1.372104,0.105209 2.920533,0.105209 2.05571,0 3.055686,-0.07229 3.706159,-0.267915 z M 14.839612,33.958486 c -0.146589,-0.176628 -0.110869,-0.305049 0.150687,-0.541755 0.188553,-0.170636 0.342822,-0.404447 0.342822,-0.519578 0,-0.115132 0.210793,-0.586101 0.468427,-1.0466 0.74436,-1.330467 1.357898,-2.480878 1.866003,-3.498835 0.259271,-0.519434 0.535533,-0.970184 0.613913,-1.001664 0.07838,-0.03148 0.142509,-0.246403 0.142509,-0.477603 0,-0.231201 0.115907,-0.464842 0.257571,-0.519203 0.141664,-0.05436 0.257571,-0.235654 0.257571,-0.40287 0,-0.167219 0.115907,-0.400226 0.257571,-0.517797 0.141664,-0.117571 0.257571,-0.314692 0.257571,-0.438046 0,-0.123354 0.121299,-0.345577 0.269551,-0.49383 0.148253,-0.148253 0.244842,-0.443541 0.214643,-0.656193 -0.05451,-0.383858 -0.07747,-0.386822 -3.189982,-0.411695 -1.724292,-0.01377 -3.23882,-0.06486 -3.365621,-0.113521 -0.282187,-0.108287 -0.332956,-2.299524 -0.05722,-2.469934 0.09939,-0.06143 1.911065,-0.09335 4.025943,-0.07094 3.272207,0.03467 3.907309,6.5e-5 4.261814,-0.232215 0.229122,-0.150127 0.416585,-0.377622 0.416585,-0.505545 0,-0.127922 0.115907,-0.328781 0.257571,-0.446352 0.141664,-0.117571 0.257571,-0.357604 0.257571,-0.533407 0,-0.302776 -0.246902,-0.322055 -4.679204,-0.365332 l -4.679207,-0.04569 V 17.27617 15.902458 h 10.903837 10.903836 v 1.373712 1.373711 l -4.458192,0.08586 -4.458191,0.08586 -0.494263,0.736229 c -0.835244,1.24414 -0.810208,1.2509 4.56567,1.232829 2.591412,-0.0087 4.704008,0.05357 4.791702,0.141264 0.08626,0.08626 0.133538,0.651256 0.105058,1.255542 l -0.05178,1.0987 -3.205836,0.08586 c -1.763209,0.04722 -3.269999,0.149837 -3.348422,0.228034 -0.216622,0.216002 -1.060583,1.685156 -1.274646,2.218889 -0.104166,0.259718 -0.259103,0.472214 -0.344308,0.472214 -0.0852,0 -0.154915,0.149982 -0.154915,0.333293 0,0.183312 -0.07239,0.378034 -0.160867,0.432716 -0.08848,0.05468 -0.361845,0.503551 -0.607486,0.997488 -0.245642,0.493939 -0.678002,1.284426 -0.960803,1.756639 -0.689263,1.150918 -0.727308,1.246873 -0.612742,1.545426 0.0792,0.206389 0.458174,0.25757 1.907225,0.25757 1.080381,0 1.814865,0.06913 1.824483,0.171714 0.0089,0.09444 0.01609,0.596706 0.01609,1.116141 0,0.519435 -0.0072,1.021698 -0.01609,1.116141 -0.01022,0.109031 -1.457779,0.171714 -3.965519,0.171714 -3.324231,0 -3.94942,-0.03917 -3.94942,-0.247437 0,-0.13609 0.0814,-0.297743 0.180883,-0.35923 0.182158,-0.112579 0.840502,-1.307794 1.202809,-2.183685 0.10743,-0.259717 0.265041,-0.472213 0.350245,-0.472213 0.0852,0 0.154915,-0.145081 0.154915,-0.322404 0,-0.17732 0.115907,-0.418595 0.257571,-0.536166 0.141664,-0.117571 0.257571,-0.349385 0.257571,-0.515142 0,-0.165757 0.115907,-0.397571 0.257571,-0.515142 0.141664,-0.117571 0.257571,-0.278175 0.257571,-0.356897 0,-0.07872 0.232401,-0.537284 0.516445,-1.019024 0.284044,-0.481742 0.78276,-1.369129 1.108258,-1.971974 0.325495,-0.602843 0.684824,-1.245019 0.798509,-1.427054 0.36743,-0.588351 0.08089,-0.891611 -0.842465,-0.891611 -0.649777,0 -0.916507,0.0878 -1.207387,0.397423 -0.205348,0.218583 -0.37336,0.518207 -0.37336,0.665831 0,0.147623 -0.115907,0.3646 -0.257571,0.482171 -0.141664,0.117571 -0.257571,0.350578 -0.257571,0.517797 0,0.167217 -0.115907,0.348507 -0.257571,0.40287 -0.141664,0.05436 -0.257571,0.246344 -0.257571,0.42663 0,0.180286 -0.115907,0.423986 -0.257571,0.541557 -0.141664,0.117571 -0.25757,0.310749 -0.25757,0.429285 0,0.118535 -0.115907,0.311714 -0.257571,0.429284 -0.141664,0.117571 -0.257571,0.358847 -0.257571,0.536167 0,0.177322 -0.06113,0.322403 -0.135841,0.322403 -0.07471,0 -0.359385,0.44431 -0.632604,0.987356 -0.273221,0.543045 -0.791627,1.471662 -1.152014,2.063591 -0.360388,0.591931 -0.65525,1.186222 -0.65525,1.32065 0,0.134426 -0.08204,0.295115 -0.182305,0.357083 -0.100269,0.06197 -0.252899,0.298344 -0.339178,0.525276 -0.147374,0.38762 -0.239038,0.412605 -1.513808,0.412605 -0.928784,0 -1.417561,-0.07305 -1.54907,-0.231507 z m 12.388571,-5.388772 c -0.07428,-0.193842 0.76809,-1.444497 1.245574,-1.849278 0.111406,-0.09444 0.774134,-0.171714 1.47273,-0.171714 h 1.270175 v 1.08793 1.087929 l -1.953754,0.02821 c -1.410021,0.02036 -1.976291,-0.03059 -2.034725,-0.183077 z"
     id="path1168"
     inkscape:connector-curvature="0" />
</svg>
