<?xml version="1.0" encoding="UTF-8" standalone="no"?>
<!-- Generator: Adobe Illustrator 19.0.0, SVG Export Plug-In . SVG Version: 6.00 Build 0)  -->

<svg
   xmlns:dc="http://purl.org/dc/elements/1.1/"
   xmlns:cc="http://creativecommons.org/ns#"
   xmlns:rdf="http://www.w3.org/1999/02/22-rdf-syntax-ns#"
   xmlns:svg="http://www.w3.org/2000/svg"
   xmlns="http://www.w3.org/2000/svg"
   xmlns:sodipodi="http://sodipodi.sourceforge.net/DTD/sodipodi-0.dtd"
   xmlns:inkscape="http://www.inkscape.org/namespaces/inkscape"
   version="1.1"
   id="Capa_1"
   x="0px"
   y="0px"
   viewBox="0 0 48 48"
   xml:space="preserve"
   sodipodi:docname="travel.svg"
   width="48"
   height="48"
   inkscape:version="0.92.2 2405546, 2018-03-11"><metadata
   id="metadata55"><rdf:RDF><cc:Work
       rdf:about=""><dc:format>image/svg+xml</dc:format><dc:type
         rdf:resource="http://purl.org/dc/dcmitype/StillImage" /><dc:title></dc:title></cc:Work></rdf:RDF></metadata><defs
   id="defs53" /><sodipodi:namedview
   pagecolor="#ffffff"
   bordercolor="#666666"
   borderopacity="1"
   objecttolerance="10"
   gridtolerance="10"
   guidetolerance="10"
   inkscape:pageopacity="0"
   inkscape:pageshadow="2"
   inkscape:window-width="1280"
   inkscape:window-height="968"
   id="namedview51"
   showgrid="false"
   inkscape:zoom="3.6875"
   inkscape:cx="68.572781"
   inkscape:cy="32"
   inkscape:window-x="0"
   inkscape:window-y="24"
   inkscape:window-maximized="1"
   inkscape:current-layer="Capa_1" />
<g
   id="g6"
   transform="translate(0,-464)">
	<g
   id="g4">
		
	</g>
</g>
<g
   id="g12"
   transform="translate(0,-464)">
	<g
   id="g10">
		
	</g>
</g>
<g
   id="g18"
   transform="matrix(0.07812503,0,0,0.07812503,3.999998,4.0000314)">
	<g
   id="g16">
		<path
   id="path14"
   d="m 486.689,283.684 c -33.677,-33.677 -88.473,-33.676 -122.15,0 -27.913,27.912 -33.358,71.126 -13.242,105.09 l 48.002,81.051 H 108.525 c -25.669,0 -46.553,-20.884 -46.553,-46.553 0,-25.669 20.883,-46.553 46.553,-46.553 h 140.849 c 42.21,0 76.552,-34.342 76.552,-76.553 0,-42.211 -34.341,-76.552 -76.552,-76.552 H 112.702 l 48.001,-81.05 C 180.818,108.6 175.372,65.385 147.461,37.474 131.147,21.161 109.457,12.175 86.386,12.175 63.315,12.175 41.624,21.16 25.31,37.474 -2.602,65.386 -8.047,108.602 12.068,142.565 l 65.769,111.048 h 171.537 c 25.669,0 46.553,20.884 46.553,46.554 0,25.669 -20.883,46.553 -46.553,46.553 H 108.525 c -42.21,0 -76.552,34.342 -76.552,76.552 0,42.211 34.341,76.552 76.552,76.552 h 325.64 L 499.933,388.775 C 520.047,354.81 514.601,311.596 486.689,283.684 Z M 37.88,127.279 C 24.752,105.111 28.305,76.905 46.524,58.688 57.172,48.039 71.328,42.176 86.385,42.176 c 15.057,0 29.215,5.864 39.863,16.512 18.217,18.217 21.771,46.423 8.644,68.591 L 86.386,209.18 Z m 436.24,246.208 -48.506,81.902 -48.506,-81.902 c -13.128,-22.168 -9.575,-50.373 8.644,-68.591 10.991,-10.99 25.427,-16.484 39.863,-16.484 14.436,0 28.873,5.495 39.862,16.484 18.219,18.218 21.772,46.423 8.643,68.591 z M 86.385,61.053 c -20.677,0 -37.498,16.821 -37.498,37.498 0,20.677 16.821,37.498 37.498,37.498 20.677,0 37.498,-16.821 37.498,-37.498 0,-20.676 -16.821,-37.498 -37.498,-37.498 z m 0,44.999 c -4.136,0 -7.5,-3.364 -7.5,-7.5 0,-4.136 3.364,-7.5 7.5,-7.5 4.136,0 7.5,3.364 7.5,7.5 -0.001,4.136 -3.364,7.5 -7.5,7.5 z m 338.265,201.21 c -20.677,0 -37.498,16.821 -37.498,37.498 0,20.677 16.821,37.499 37.498,37.499 20.677,0 37.498,-16.822 37.498,-37.499 0,-20.676 -16.821,-37.498 -37.498,-37.498 z m 0,45 c -4.136,0 -7.5,-3.365 -7.5,-7.501 0,-4.136 3.364,-7.5 7.5,-7.5 4.136,0 7.5,3.364 7.5,7.5 0,4.136 -3.364,7.501 -7.5,7.501 z"
   inkscape:connector-curvature="0" />
	</g>
</g>
<g
   id="g20"
   transform="translate(0,-464)">
</g>
<g
   id="g22"
   transform="translate(0,-464)">
</g>
<g
   id="g24"
   transform="translate(0,-464)">
</g>
<g
   id="g26"
   transform="translate(0,-464)">
</g>
<g
   id="g28"
   transform="translate(0,-464)">
</g>
<g
   id="g30"
   transform="translate(0,-464)">
</g>
<g
   id="g32"
   transform="translate(0,-464)">
</g>
<g
   id="g34"
   transform="translate(0,-464)">
</g>
<g
   id="g36"
   transform="translate(0,-464)">
</g>
<g
   id="g38"
   transform="translate(0,-464)">
</g>
<g
   id="g40"
   transform="translate(0,-464)">
</g>
<g
   id="g42"
   transform="translate(0,-464)">
</g>
<g
   id="g44"
   transform="translate(0,-464)">
</g>
<g
   id="g46"
   transform="translate(0,-464)">
</g>
<g
   id="g48"
   transform="translate(0,-464)">
</g>
</svg>