<?xml version="1.0" encoding="UTF-8" standalone="no"?>
<!-- Created with Inkscape (http://www.inkscape.org/) -->

<svg
   xmlns:dc="http://purl.org/dc/elements/1.1/"
   xmlns:cc="http://creativecommons.org/ns#"
   xmlns:rdf="http://www.w3.org/1999/02/22-rdf-syntax-ns#"
   xmlns:svg="http://www.w3.org/2000/svg"
   xmlns="http://www.w3.org/2000/svg"
   xmlns:xlink="http://www.w3.org/1999/xlink"
   xmlns:sodipodi="http://sodipodi.sourceforge.net/DTD/sodipodi-0.dtd"
   xmlns:inkscape="http://www.inkscape.org/namespaces/inkscape"
   width="48"
   height="48"
   viewBox="0 0 12.7 12.7"
   version="1.1"
   id="svg8"
   inkscape:version="0.92.2 2405546, 2018-03-11"
   sodipodi:docname="icon_estaciones_3.svg">
  <defs
     id="defs2">
    <clipPath
       id="clipPath899"
       clipPathUnits="userSpaceOnUse">
      <use
         height="100%"
         width="100%"
         id="use901"
         xlink:href="#g895"
         y="0"
         x="0" />
    </clipPath>
  </defs>
  <sodipodi:namedview
     id="base"
     pagecolor="#ffffff"
     bordercolor="#666666"
     borderopacity="1.0"
     inkscape:pageopacity="0.0"
     inkscape:pageshadow="2"
     inkscape:zoom="7.9195959"
     inkscape:cx="24.727876"
     inkscape:cy="24.385875"
     inkscape:document-units="mm"
     inkscape:current-layer="layer1"
     showgrid="false"
     units="px"
     inkscape:window-width="1280"
     inkscape:window-height="968"
     inkscape:window-x="0"
     inkscape:window-y="24"
     inkscape:window-maximized="1" />
  <metadata
     id="metadata5">
    <rdf:RDF>
      <cc:Work
         rdf:about="">
        <dc:format>image/svg+xml</dc:format>
        <dc:type
           rdf:resource="http://purl.org/dc/dcmitype/StillImage" />
        <dc:title></dc:title>
      </cc:Work>
    </rdf:RDF>
  </metadata>
  <g
     inkscape:label="Capa 1"
     inkscape:groupmode="layer"
     id="layer1"
     transform="translate(0,-284.29998)">
    <g
       id="g1481"
       transform="matrix(0.10573421,0,0,0.10573421,1.0583332,285.35831)">
      <path
         id="path884"
         d="M 0,0 V 50.046875 100.09375 H 50.046875 100.09375 L 99.796875,63.84375 99.5,27.59375 96.839844,21.917969 C 93.116393,13.975144 87.022467,7.722907 79.146484,3.84375 l -6.597656,-3.25 -36.27539,-0.296875 z m 33.851562,13.337891 h 29.705079 c 0.953104,0 1.985726,0.290552 3.097656,0.873047 1.111951,0.582494 2.11738,1.297396 3.017578,2.144531 0.899706,0.847135 1.641636,1.800337 2.224609,2.859375 0.582482,1.059037 0.873047,2.118697 0.873047,3.177734 v 41.458984 c -0.105941,0.317697 -0.185396,0.660659 -0.238281,1.03125 l -0.07813,0.556641 c -0.529448,2.012125 -1.482636,3.548386 -2.859375,4.607422 -1.376718,1.059038 -2.91301,1.905625 -4.607422,2.541016 0,0.105951 -0.02717,0.158203 -0.08008,0.158203 -0.05289,0 -0.07813,0.0542 -0.07813,0.160156 l 0.158203,0.316406 11.914063,18.109375 H 69.751953 L 60.855469,78.464844 H 36.394531 L 27.498047,91.332031 H 20.349609 L 32.582031,72.90625 c 0,-0.105791 -0.344917,-0.29184 -1.033203,-0.556641 -0.688288,-0.264638 -1.192069,-0.450689 -1.509766,-0.55664 -0.63539,-0.317694 -1.268906,-0.767115 -1.904296,-1.34961 -0.635391,-0.582495 -1.218608,-1.217963 -1.748047,-1.90625 C 25.85728,67.848821 25.432931,67.13392 25.115234,66.392578 24.79754,65.651236 24.638672,64.909311 24.638672,64.167969 v -42.09375 c 0,-0.953087 0.292505,-1.958541 0.875,-3.017578 0.582337,-1.059038 1.322467,-2.012241 2.222656,-2.859375 0.900189,-0.847135 1.905644,-1.536967 3.017578,-2.066407 1.111934,-0.529439 2.14457,-0.792968 3.097656,-0.792968 z m 9.054688,2.222656 c -0.317696,0 -0.608246,0.158867 -0.873047,0.476562 -0.264798,0.317696 -0.396484,0.63543 -0.396484,0.953125 v 3.654297 c 0,0.211268 0.104663,0.422386 0.316406,0.634766 0.105951,0.211744 0.264818,0.370611 0.476563,0.476562 0.105951,0.105952 0.264817,0.212408 0.476562,0.31836 h 11.4375 c 0.211745,0 0.450045,-0.106615 0.714844,-0.31836 0.2648,-0.211743 0.396484,-0.475273 0.396484,-0.792968 v -4.449219 c 0,-0.211744 -0.158866,-0.423022 -0.476562,-0.634766 -0.317695,-0.211744 -0.528815,-0.318359 -0.634766,-0.318359 z m -8.101562,8.578125 c -0.635393,0 -1.243677,0.158868 -1.826172,0.476562 -0.582495,0.317697 -1.031916,0.689636 -1.34961,1.113282 -0.423648,0.528486 -0.795585,1.057499 -1.113281,1.58789 -0.211745,0.635391 -0.316406,1.216655 -0.316406,1.746094 v 8.101562 c 0,1.059039 0.369986,2.039262 1.111328,2.939454 0.741342,0.900189 1.642133,1.403814 2.701172,1.509765 0.105951,0.105952 0.264817,0.183431 0.476562,0.236328 0.211745,0.0529 0.370611,0.08008 0.476563,0.08008 h 27.162109 c 0.635391,0 1.164256,-0.104662 1.587891,-0.316407 0.529447,-0.211742 1.060396,-0.529477 1.589844,-0.953125 0.423634,-0.423645 0.793633,-0.875019 1.111328,-1.351562 0.317694,-0.476544 0.476562,-0.978372 0.476562,-1.507813 v -9.373047 c 0,-0.63539 -0.158868,-1.164242 -0.476562,-1.58789 -0.211754,-0.529439 -0.52949,-0.95379 -0.953125,-1.271485 -0.529448,-0.423647 -1.006032,-0.74138 -1.429688,-0.953125 -0.635388,-0.317694 -1.164243,-0.476562 -1.587891,-0.476562 z m 0.160156,33.517578 c -1.270781,0 -2.357624,0.44942 -3.257813,1.349609 -0.900189,0.900189 -1.349609,1.985077 -1.349609,3.25586 0,1.376732 0.424349,2.543007 1.271484,3.496093 0.847136,0.953087 1.959205,1.429688 3.335938,1.429688 1.376732,0 2.513871,-0.476601 3.414062,-1.429688 0.900189,-0.953086 1.351563,-2.119361 1.351563,-3.496093 0,-1.376735 -0.451374,-2.488804 -1.351563,-3.335938 -0.900031,-0.847135 -2.03733,-1.269531 -3.414062,-1.269531 z m 27.162109,0 c -1.270781,0 -2.382851,0.422396 -3.335937,1.269531 -0.953087,0.847134 -1.429688,1.959203 -1.429688,3.335938 0,1.376732 0.451371,2.543007 1.351563,3.496093 0.89987,0.953087 2.037169,1.429688 3.414062,1.429688 1.376737,0 2.488796,-0.476601 3.335938,-1.429688 0.84712,-0.953086 1.271484,-2.119361 1.271484,-3.496093 0,-1.270783 -0.424364,-2.355671 -1.271484,-3.25586 C 64.615749,58.10567 63.50369,57.65625 62.126953,57.65625 Z"
         style="fill:#000000"
         inkscape:connector-curvature="0" />
      <g
         clip-path="url(#clipPath899)"
         id="g897">
        <g
           id="g895"
           inkscape:label="Clip">
          <g
             id="g947"
             transform="matrix(0.21359029,0,0,0.21359029,-150.42547,9.869213)">
            <g
               id="g890">
              <g
                 id="g888" />
            </g>
            <g
               id="g892" />
            <g
               id="g894" />
            <g
               id="g896" />
            <g
               id="g898" />
            <g
               id="g900" />
            <g
               id="g902" />
            <g
               id="g904" />
            <g
               id="g906" />
            <g
               id="g908" />
            <g
               id="g910" />
            <g
               id="g912" />
            <g
               id="g914" />
            <g
               id="g916" />
            <g
               id="g918" />
            <g
               id="g920" />
          </g>
        </g>
      </g>
    </g>
  </g>
</svg>
