<?xml version="1.0" encoding="UTF-8" standalone="no"?>
<!-- Created with Inkscape (http://www.inkscape.org/) -->

<svg
   xmlns:dc="http://purl.org/dc/elements/1.1/"
   xmlns:cc="http://creativecommons.org/ns#"
   xmlns:rdf="http://www.w3.org/1999/02/22-rdf-syntax-ns#"
   xmlns:svg="http://www.w3.org/2000/svg"
   xmlns="http://www.w3.org/2000/svg"
   xmlns:sodipodi="http://sodipodi.sourceforge.net/DTD/sodipodi-0.dtd"
   xmlns:inkscape="http://www.inkscape.org/namespaces/inkscape"
   version="1.1"
   id="svg1251"
   width="48"
   height="48"
   viewBox="0 0 48 48"
   sodipodi:docname="icon_trensuburbano.svg"
   inkscape:version="0.92.2 2405546, 2018-03-11">
  <metadata
     id="metadata1257">
    <rdf:RDF>
      <cc:Work
         rdf:about="">
        <dc:format>image/svg+xml</dc:format>
        <dc:type
           rdf:resource="http://purl.org/dc/dcmitype/StillImage" />
        <dc:title></dc:title>
      </cc:Work>
    </rdf:RDF>
  </metadata>
  <defs
     id="defs1255" />
  <sodipodi:namedview
     pagecolor="#ffffff"
     bordercolor="#666666"
     borderopacity="1"
     objecttolerance="10"
     gridtolerance="10"
     guidetolerance="10"
     inkscape:pageopacity="0"
     inkscape:pageshadow="2"
     inkscape:window-width="1280"
     inkscape:window-height="968"
     id="namedview1253"
     showgrid="false"
     fit-margin-top="0"
     fit-margin-left="0"
     fit-margin-right="0"
     fit-margin-bottom="0"
     inkscape:zoom="1.1993068"
     inkscape:cx="100.47471"
     inkscape:cy="287.66618"
     inkscape:window-x="0"
     inkscape:window-y="24"
     inkscape:window-maximized="1"
     inkscape:current-layer="svg1251" />
  <path
     style="fill:#000000;stroke-width:0.06932409"
     d="m 22.78688,43.930676 c 0,-0.04181 -0.28885,-0.06932 -0.727903,-0.06932 -0.439052,0 -0.727902,-0.02751 -0.727902,-0.06932 0,-0.03911 -0.196418,-0.06932 -0.450607,-0.06932 -0.254189,0 -0.450607,-0.03022 -0.450607,-0.06932 0,-0.03813 -0.155979,-0.06932 -0.34662,-0.06932 -0.190641,0 -0.346621,-0.03119 -0.346621,-0.06932 0,-0.03813 -0.140381,-0.06932 -0.311958,-0.06932 -0.171577,0 -0.311958,-0.0312 -0.311958,-0.06932 0,-0.03813 -0.109186,-0.06932 -0.242635,-0.06932 -0.133449,0 -0.242634,-0.0312 -0.242634,-0.06932 0,-0.03813 -0.109185,-0.06932 -0.242634,-0.06932 -0.133449,0 -0.242635,-0.0312 -0.242635,-0.06932 0,-0.03813 -0.09359,-0.06932 -0.207972,-0.06932 -0.114385,0 -0.207972,-0.0312 -0.207972,-0.06932 0,-0.03813 -0.09359,-0.06932 -0.207972,-0.06932 -0.114385,0 -0.207973,-0.0312 -0.207973,-0.06933 0,-0.03813 -0.09543,-0.06932 -0.212063,-0.06932 -0.123723,0 -0.194216,-0.02888 -0.169219,-0.06932 0.0243,-0.03932 -0.03394,-0.06932 -0.134557,-0.06932 -0.09757,0 -0.177402,-0.0312 -0.177402,-0.06932 0,-0.03813 -0.09543,-0.06932 -0.212063,-0.06932 -0.123723,0 -0.194216,-0.02888 -0.169219,-0.06932 0.0243,-0.03932 -0.03394,-0.06932 -0.134557,-0.06932 -0.09757,0 -0.177401,-0.0312 -0.177401,-0.06932 0,-0.03813 -0.06239,-0.06932 -0.138649,-0.06932 -0.07626,0 -0.138648,-0.0312 -0.138648,-0.06932 0,-0.03813 -0.06055,-0.06932 -0.134557,-0.06932 -0.07401,0 -0.153837,-0.0312 -0.177401,-0.06932 -0.02356,-0.03813 -0.103396,-0.06932 -0.177402,-0.06932 -0.07401,0 -0.134557,-0.0312 -0.134557,-0.06932 0,-0.03813 -0.06239,-0.06932 -0.138648,-0.06932 -0.07626,0 -0.138648,-0.0312 -0.138648,-0.06932 0,-0.03813 -0.05551,-0.06932 -0.123344,-0.06932 -0.06784,0 -0.168314,-0.06239 -0.223276,-0.138648 -0.05496,-0.07626 -0.155438,-0.138648 -0.223277,-0.138648 -0.06784,0 -0.123344,-0.0312 -0.123344,-0.06932 0,-0.03813 -0.0481,-0.06932 -0.106884,-0.06932 -0.05879,0 -0.173855,-0.06239 -0.255707,-0.138648 -0.08185,-0.07626 -0.189733,-0.138648 -0.239735,-0.138648 -0.05,0 -0.09091,-0.0312 -0.09091,-0.06932 0,-0.03813 -0.05551,-0.06932 -0.123345,-0.06932 -0.06784,0 -0.168313,-0.06239 -0.223276,-0.138648 -0.05496,-0.07626 -0.141257,-0.138649 -0.191765,-0.138649 -0.05051,0 -0.169823,-0.07799 -0.265144,-0.17331 -0.09532,-0.09532 -0.199788,-0.17331 -0.232151,-0.17331 -0.03236,0 -0.159028,-0.09359 -0.281477,-0.207972 -0.122449,-0.114385 -0.249114,-0.207972 -0.281477,-0.207972 -0.03236,0 -0.131637,-0.07019 -0.220609,-0.15598 -0.08897,-0.08593 -0.362893,-0.327698 -0.608712,-0.537403 C 10.424569,38.646088 9.010446,37.229697 8.8527385,36.996547 8.7955461,36.911995 8.631768,36.719269 8.488787,36.568265 8.3458061,36.417261 8.2288217,36.26648 8.2288217,36.233197 c 0,-0.03328 -0.077281,-0.137797 -0.1717352,-0.232251 -0.094454,-0.09445 -0.1802426,-0.211439 -0.1906412,-0.259966 -0.010399,-0.04853 -0.089097,-0.161257 -0.1748855,-0.250512 -0.085789,-0.08926 -0.1559792,-0.190641 -0.1559792,-0.225303 0,-0.03466 -0.07799,-0.141012 -0.1733102,-0.236332 -0.095321,-0.09532 -0.1733103,-0.221523 -0.1733103,-0.280448 0,-0.05893 -0.031196,-0.107137 -0.069324,-0.107137 -0.038128,0 -0.069324,-0.04091 -0.069324,-0.09091 0,-0.05 -0.062392,-0.157883 -0.1386482,-0.239735 -0.076257,-0.08185 -0.1386482,-0.19692 -0.1386482,-0.255706 0,-0.05879 -0.025373,-0.106885 -0.056385,-0.106885 -0.031012,0 -0.099226,-0.109186 -0.1515873,-0.242634 C 6.5126821,33.571924 6.4522668,33.462627 6.4307871,33.462492 6.4093074,33.462353 6.3137435,33.29089 6.2184229,33.081456 6.1231023,32.872021 6.0217158,32.700555 5.9931196,32.70042 c -0.028596,-1.39e-4 -0.051993,-0.07824 -0.051993,-0.173557 0,-0.09532 -0.031196,-0.17331 -0.069324,-0.17331 -0.038128,0 -0.069324,-0.07799 -0.069324,-0.17331 0,-0.09532 -0.031196,-0.173311 -0.069324,-0.173311 -0.038128,0 -0.069324,-0.06239 -0.069324,-0.138648 0,-0.07626 -0.031196,-0.138648 -0.069324,-0.138648 -0.038128,0 -0.069324,-0.07799 -0.069324,-0.17331 0,-0.09532 -0.031196,-0.17331 -0.069324,-0.17331 -0.038128,0 -0.069324,-0.07799 -0.069324,-0.173311 0,-0.09532 -0.031196,-0.17331 -0.069324,-0.17331 -0.038128,0 -0.069324,-0.07799 -0.069324,-0.17331 0,-0.09532 -0.031196,-0.17331 -0.069324,-0.17331 -0.038128,0 -0.069324,-0.0312 -0.069324,-0.06932 0,-0.04557 1.7000666,-0.06932 4.9615514,-0.06932 h 4.961551 l 0.324336,0.363951 c 0.536234,0.601732 1.263035,1.284338 1.67956,1.577429 0.131659,0.09264 0.280602,0.208463 0.330986,0.257378 0.05038,0.04892 0.118346,0.08894 0.151028,0.08894 0.03268,0 0.100644,0.03905 0.151027,0.08677 0.527321,0.499496 2.709124,1.455248 3.939094,1.725545 0.171577,0.03771 0.467937,0.102535 0.658579,0.144066 0.398195,0.08675 2.784961,0.101796 3.380829,0.02132 0.219941,-0.0297 0.416756,-0.08129 0.437367,-0.114643 0.02061,-0.03335 0.1334,-0.06063 0.250643,-0.06063 0.203277,0 0.624555,-0.09407 0.922495,-0.205999 0.07626,-0.02865 0.263432,-0.09054 0.415945,-0.137536 0.909267,-0.280194 2.242662,-0.92517 2.708006,-1.309889 0.04053,-0.03351 0.149071,-0.101266 0.241203,-0.150574 0.09213,-0.04931 0.204458,-0.123718 0.249612,-0.165357 0.04515,-0.04164 0.186179,-0.152375 0.313389,-0.246081 0.280911,-0.206926 1.791083,-1.72415 1.791083,-1.799445 0,-0.02952 0.07989,-0.144316 0.177521,-0.255099 0.09764,-0.110783 0.242209,-0.326207 0.321271,-0.47872 0.07906,-0.152513 0.166468,-0.292895 0.194234,-0.311959 0.08928,-0.0613 0.474533,-0.889054 0.433076,-0.930512 -0.02201,-0.02201 -0.0036,-0.04002 0.04085,-0.04002 0.04448,0 0.08088,-0.06239 0.08088,-0.138648 0,-0.138218 -0.04622,-0.138648 -14.874109,-0.138648 -9.8984185,0 -14.8597754,-0.02319 -14.8312631,-0.06932 0.023564,-0.03813 0.00981,-0.06932 -0.030571,-0.06932 -0.041882,0 -0.073415,-0.148878 -0.073415,-0.34662 0,-0.190641 -0.031196,-0.34662 -0.069324,-0.34662 -0.038513,0 -0.069324,-0.184865 -0.069324,-0.415945 0,-0.23108 -0.030811,-0.415945 -0.069324,-0.415945 -0.042037,0 -0.069324,-0.301768 -0.069324,-0.766656 0,-0.493451 -0.024704,-0.751388 -0.069324,-0.723811 C 4.024162,25.206453 4.000052,24.796583 4.000052,24 c 0,-0.796583 0.02411,-1.206453 0.069324,-1.17851 0.04462,0.02758 0.069324,-0.23036 0.069324,-0.723811 0,-0.464888 0.027287,-0.766656 0.069324,-0.766656 0.039106,0 0.069324,-0.196418 0.069324,-0.450607 0,-0.254189 0.030218,-0.450607 0.069324,-0.450607 0.038128,0 0.069324,-0.155979 0.069324,-0.34662 0,-0.190641 0.031196,-0.346621 0.069324,-0.346621 0.038128,0 0.069324,-0.140381 0.069324,-0.311958 0,-0.171577 0.031196,-0.311958 0.069324,-0.311958 0.038128,0 0.069324,-0.109186 0.069324,-0.242635 0,-0.133449 0.031196,-0.242634 0.069324,-0.242634 0.038128,0 0.069324,-0.109185 0.069324,-0.242634 0,-0.133449 0.031196,-0.242635 0.069324,-0.242635 0.038128,0 0.069324,-0.09359 0.069324,-0.207972 0,-0.114385 0.031196,-0.207972 0.069324,-0.207972 0.038128,0 0.069324,-0.09359 0.069324,-0.207972 0,-0.114385 0.031196,-0.207973 0.069324,-0.207973 0.038128,0 0.069324,-0.07799 0.069324,-0.17331 0,-0.09532 0.031196,-0.17331 0.069324,-0.17331 0.038128,0 0.069324,-0.07615 0.069324,-0.169219 0,-0.09307 0.031196,-0.188499 0.069324,-0.212064 0.038128,-0.02356 0.069324,-0.103395 0.069324,-0.177401 0,-0.07401 0.031196,-0.134557 0.069324,-0.134557 0.038128,0 0.069324,-0.07799 0.069324,-0.17331 0,-0.09532 0.031196,-0.17331 0.069324,-0.17331 0.038128,0 0.069066,-0.03899 0.06875,-0.08666 -5.962e-4,-0.0901 0.5547832,-1.238944 0.6283665,-1.299826 0.023042,-0.01906 0.086004,-0.136049 0.1399176,-0.259966 0.053913,-0.123916 0.1216048,-0.225303 0.1504255,-0.225303 0.028821,0 0.052401,-0.06239 0.052401,-0.138648 0,-0.07626 0.027411,-0.138648 0.060914,-0.138648 0.033502,0 0.099679,-0.09359 0.1470586,-0.207973 0.04738,-0.114384 0.1135561,-0.207972 0.1470586,-0.207972 0.033502,0 0.060914,-0.05551 0.060914,-0.123344 0,-0.06784 0.062392,-0.168313 0.1386482,-0.223276 0.076256,-0.05496 0.1386482,-0.148551 0.1386482,-0.207973 0,-0.05942 0.062392,-0.153009 0.1386482,-0.207972 0.076256,-0.05496 0.1386482,-0.135212 0.1386482,-0.178333 0,-0.04312 0.093859,-0.176614 0.2085749,-0.296654 0.1147168,-0.12004 0.1914766,-0.218254 0.1705774,-0.218254 -0.041962,0 0.023414,-0.08212 0.3834129,-0.481623 0.1334488,-0.148092 0.3206239,-0.372318 0.4159445,-0.49828 0.2198704,-0.290548 1.7019557,-1.771128 2.0030657,-2.001033 0.124844,-0.09532 0.348155,-0.282495 0.496247,-0.415944 0.399501,-0.359998 0.481623,-0.425375 0.481623,-0.383413 0,0.0209 0.09821,-0.05586 0.218254,-0.170577 0.12004,-0.114717 0.253535,-0.208575 0.296655,-0.208575 0.04312,0 0.123369,-0.06239 0.178332,-0.138648 0.05496,-0.07626 0.141142,-0.138648 0.191513,-0.138648 0.05037,0 0.15855,-0.06239 0.240402,-0.138649 0.08185,-0.07626 0.189733,-0.138648 0.239736,-0.138648 0.05,0 0.09091,-0.02741 0.09091,-0.06091 0,-0.0335 0.09359,-0.09968 0.207971,-0.147058 0.114386,-0.04738 0.207972,-0.113556 0.207972,-0.147059 0,-0.0335 0.06239,-0.06091 0.138649,-0.06091 0.07626,0 0.138648,-0.0312 0.138648,-0.06932 0,-0.03813 0.04679,-0.06932 0.103986,-0.06932 0.05719,0 0.103987,-0.0312 0.103987,-0.06932 0,-0.03813 0.06239,-0.06932 0.138648,-0.06932 0.07626,0 0.138648,-0.0312 0.138648,-0.06932 0,-0.03813 0.04679,-0.06932 0.103987,-0.06932 0.05719,0 0.103986,-0.0312 0.103986,-0.06932 0,-0.03813 0.04363,-0.06932 0.09695,-0.06932 0.05332,0 0.27486,-0.09359 0.492309,-0.207972 0.217449,-0.1143851 0.438988,-0.2079727 0.492308,-0.2079727 0.05332,0 0.09695,-0.031196 0.09695,-0.069324 0,-0.038128 0.06239,-0.069324 0.138648,-0.069324 0.07626,0 0.138648,-0.031196 0.138648,-0.069324 0,-0.038128 0.07799,-0.069324 0.17331,-0.069324 0.09532,0 0.17331,-0.031196 0.17331,-0.069324 0,-0.038128 0.09359,-0.069324 0.207973,-0.069324 0.114384,0 0.207972,-0.031196 0.207972,-0.069324 0,-0.038128 0.07799,-0.069324 0.17331,-0.069324 0.09532,0 0.17331,-0.031196 0.17331,-0.069324 0,-0.038128 0.09359,-0.069324 0.207973,-0.069324 0.114384,0 0.207972,-0.031196 0.207972,-0.069324 0,-0.038128 0.09359,-0.069324 0.207972,-0.069324 0.114385,0 0.207972,-0.031196 0.207972,-0.069324 0,-0.038128 0.111027,-0.069324 0.246726,-0.069324 0.146831,0 0.229378,-0.028068 0.203881,-0.069324 -0.02587,-0.041867 0.0686,-0.069324 0.238543,-0.069324 0.154763,0 0.281388,-0.031196 0.281388,-0.069324 0,-0.038128 0.155979,-0.069324 0.34662,-0.069324 0.190641,0 0.346621,-0.031196 0.346621,-0.069324 0,-0.038128 0.155979,-0.069324 0.34662,-0.069324 0.190641,0 0.34662,-0.031196 0.34662,-0.069324 0,-0.038514 0.184865,-0.069324 0.415945,-0.069324 0.23108,0 0.415945,-0.03081 0.415945,-0.069324 0,-0.042037 0.301768,-0.069324 0.766656,-0.069324 0.493451,0 0.751388,-0.024704 0.723811,-0.069324 C 22.793601,4.0241137 23.202105,4 23.99596,4 c 0.765293,0 1.217264,0.02574 1.217264,0.069324 0,0.041814 0.28885,0.069324 0.727903,0.069324 0.439052,0 0.727902,0.02751 0.727902,0.069324 0,0.038514 0.184865,0.069324 0.415945,0.069324 0.23108,0 0.415945,0.03081 0.415945,0.069324 0,0.038128 0.155979,0.069324 0.34662,0.069324 0.190641,0 0.34662,0.031196 0.34662,0.069324 0,0.038128 0.15598,0.069324 0.346621,0.069324 0.190641,0 0.34662,0.031196 0.34662,0.069324 0,0.038128 0.126625,0.069324 0.281388,0.069324 0.169939,0 0.264418,0.027457 0.238543,0.069324 -0.0255,0.041256 0.05705,0.069324 0.203881,0.069324 0.135699,0 0.246726,0.031196 0.246726,0.069324 0,0.038128 0.09359,0.069324 0.207972,0.069324 0.114385,0 0.207972,0.031196 0.207972,0.069324 0,0.038128 0.09359,0.069324 0.207972,0.069324 0.114385,0 0.207973,0.031196 0.207973,0.069324 0,0.038128 0.07799,0.069324 0.17331,0.069324 0.09532,0 0.17331,0.031196 0.17331,0.069324 0,0.038128 0.07615,0.069324 0.169219,0.069324 0.09307,0 0.188499,0.031196 0.212064,0.069324 0.02356,0.038128 0.103395,0.069324 0.177401,0.069324 0.07401,0 0.134557,0.031196 0.134557,0.069324 0,0.038128 0.07799,0.069324 0.17331,0.069324 0.09532,0 0.17331,0.031196 0.17331,0.069324 0,0.038128 0.06055,0.069324 0.134557,0.069324 0.07401,0 0.153837,0.031196 0.177402,0.069324 0.02357,0.038128 0.103395,0.069324 0.177402,0.069324 0.07401,0 0.1348,0.023397 0.135097,0.051993 6.24e-4,0.060809 0.3351,0.225303 0.45811,0.225303 0.04641,0 0.09479,0.0234 0.107496,0.05199 0.02893,0.06508 0.39818,0.290213 0.56037,0.341648 0.06672,0.02116 0.121317,0.06603 0.121317,0.09971 0,0.03368 0.0481,0.06124 0.106885,0.06124 0.05879,0 0.173854,0.06239 0.255706,0.138648 0.08185,0.07626 0.189733,0.138648 0.239735,0.138648 0.05,0 0.09092,0.0312 0.09092,0.06932 0,0.03813 0.05551,0.06932 0.123344,0.06932 0.06784,0 0.168313,0.06239 0.223276,0.138648 0.05496,0.07626 0.148551,0.138649 0.207973,0.138649 0.05942,0 0.153009,0.06239 0.207972,0.138648 0.05496,0.07626 0.133743,0.138648 0.175067,0.138648 0.04132,0 0.194337,0.109185 0.34003,0.242634 0.145692,0.133449 0.28887,0.242634 0.318174,0.242634 0.0293,0 0.147053,0.0876 0.261665,0.194662 0.114612,0.107064 0.307546,0.270842 0.428743,0.363951 0.121196,0.09311 0.553252,0.498303 0.960124,0.900429 0.657635,0.649964 0.910186,0.918251 1.619413,1.720318 0.102523,0.115944 0.223501,0.280121 0.268841,0.364839 0.04534,0.08472 0.156432,0.228027 0.24687,0.318466 0.09044,0.09044 0.164435,0.192795 0.164435,0.227457 0,0.03466 0.07019,0.136048 0.155979,0.225303 0.08579,0.08925 0.165719,0.205682 0.177624,0.258727 0.0119,0.05304 0.0821,0.148872 0.155979,0.212952 0.07388,0.06408 0.134335,0.167441 0.134335,0.229694 0,0.06225 0.0312,0.113185 0.06932,0.113185 0.03813,0 0.06932,0.04091 0.06932,0.09092 0,0.05 0.06239,0.157883 0.138648,0.239735 0.07626,0.08185 0.138648,0.19692 0.138648,0.255706 0,0.05879 0.0312,0.106885 0.06932,0.106885 0.03813,0 0.06932,0.06239 0.06932,0.138648 0,0.07626 0.02629,0.138648 0.05842,0.138648 0.03213,0 0.13352,0.148181 0.225303,0.32929 0.09178,0.181109 0.190275,0.339688 0.218871,0.352397 0.0286,0.01271 0.05199,0.08106 0.05199,0.151888 0,0.07083 0.0312,0.14806 0.06932,0.171625 0.03813,0.02356 0.06932,0.103395 0.06932,0.177401 0,0.07401 0.0312,0.134557 0.06932,0.134557 0.03813,0 0.06932,0.06239 0.06932,0.138648 0,0.07626 0.03119,0.138649 0.06932,0.138649 0.03813,0 0.06932,0.07799 0.06932,0.17331 0,0.09532 0.0312,0.17331 0.06932,0.17331 0.03813,0 0.06932,0.07799 0.06932,0.17331 0,0.09532 0.0312,0.17331 0.06932,0.17331 0.03813,0 0.06932,0.07983 0.06932,0.177402 0,0.100614 0.03001,0.158856 0.06932,0.134557 0.03813,-0.02357 0.06932,0.02139 0.06932,0.09989 v 0.14274 h -4.89369 -4.893691 l -0.288284,-0.326986 c -0.462561,-0.524656 -1.43128,-1.422409 -1.699433,-1.574936 -0.06269,-0.03566 -0.155184,-0.105827 -0.205541,-0.15593 -0.05036,-0.0501 -0.237531,-0.175409 -0.415944,-0.278458 -0.178413,-0.103049 -0.339985,-0.208966 -0.359049,-0.235371 -0.05532,-0.07663 -1.54943,-0.811258 -1.754766,-0.862794 -0.10247,-0.02572 -0.186309,-0.07977 -0.186309,-0.120122 0,-0.04035 -0.01743,-0.05593 -0.03875,-0.03462 -0.02131,0.02131 -0.200246,-0.02029 -0.397635,-0.09243 -0.197389,-0.07215 -0.42952,-0.131179 -0.515846,-0.131179 -0.08633,0 -0.156958,-0.0312 -0.156958,-0.06932 0,-0.03813 -0.107344,-0.06932 -0.238543,-0.06932 -0.131199,0 -0.257823,-0.0312 -0.281388,-0.06932 -0.02356,-0.03813 -0.159548,-0.06932 -0.302185,-0.06932 -0.142637,0 -0.288976,-0.02845 -0.325198,-0.06322 -0.138352,-0.132821 -2.225279,-0.26609 -2.341822,-0.149547 -0.04077,0.04077 -0.280015,0.07412 -0.531661,0.07412 -0.251647,0 -0.487175,0.02817 -0.523397,0.0626 -0.03622,0.03443 -0.206239,0.07844 -0.377817,0.09779 -0.171577,0.01935 -0.452339,0.06978 -0.623916,0.112059 -0.171578,0.04228 -0.405546,0.09468 -0.519931,0.116436 -0.114385,0.02176 -0.218371,0.06795 -0.23108,0.102635 -0.01271,0.03469 -0.09766,0.06307 -0.188787,0.06307 -0.09112,0 -0.299096,0.05941 -0.462161,0.132014 -0.574539,0.255825 -0.91622,0.387667 -0.945064,0.364665 -0.01604,-0.01279 -0.04827,0.0028 -0.07162,0.03466 -0.02336,0.03185 -0.136029,0.106446 -0.250386,0.165762 -0.490908,0.254635 -0.975541,0.519948 -1.039808,0.569244 -0.03813,0.02925 -0.287695,0.214261 -0.554593,0.411142 -0.672617,0.496168 -1.730618,1.557637 -2.201883,2.2091 -0.532919,0.736693 -1.11292,1.868203 -1.046433,2.041464 0.03487,0.09086 1.796968,0.103143 14.798194,0.103143 h 14.758614 v 0.14274 c 0,0.07851 0.0312,0.123459 0.06932,0.0999 0.04304,-0.0266 0.06932,0.103266 0.06932,0.342528 0,0.211956 0.0312,0.385374 0.06932,0.385374 0.03851,0 0.06932,0.184865 0.06932,0.415945 0,0.23108 0.03081,0.415945 0.06932,0.415945 0.04201,0 0.06932,0.300404 0.06932,0.762565 0,0.46216 0.02731,0.762565 0.06932,0.762565 0.0435,0 0.06932,0.439052 0.06932,1.178509 0,0.739457 -0.02583,1.17851 -0.06932,1.17851 -0.04181,0 -0.06932,0.28885 -0.06932,0.727903 0,0.439052 -0.02751,0.727902 -0.06932,0.727902 -0.03844,0 -0.06932,0.183501 -0.06932,0.411854 0,0.226519 -0.0312,0.431133 -0.06932,0.454698 -0.03813,0.02356 -0.06932,0.196983 -0.06932,0.385374 0,0.188391 -0.03119,0.342529 -0.06932,0.342529 -0.03813,0 -0.06932,0.140381 -0.06932,0.311958 0,0.171577 -0.0312,0.311958 -0.06932,0.311958 -0.03813,0 -0.06932,0.109186 -0.06932,0.242635 0,0.133449 -0.0312,0.242634 -0.06932,0.242634 -0.03813,0 -0.06932,0.109185 -0.06932,0.242634 0,0.133449 -0.0312,0.242635 -0.06932,0.242635 -0.03813,0 -0.06932,0.09359 -0.06932,0.207972 0,0.114385 -0.0312,0.207972 -0.06932,0.207972 -0.03813,0 -0.06932,0.09359 -0.06932,0.207972 0,0.114385 -0.0312,0.207973 -0.06933,0.207973 -0.03813,0 -0.06932,0.07799 -0.06932,0.17331 0,0.09532 -0.0312,0.17331 -0.06932,0.17331 -0.03813,0 -0.06932,0.07615 -0.06932,0.169219 0,0.09307 -0.0312,0.188499 -0.06932,0.212064 -0.03813,0.02356 -0.06932,0.103395 -0.06932,0.177401 0,0.07401 -0.0312,0.134557 -0.06932,0.134557 -0.03813,0 -0.06932,0.07799 -0.06932,0.17331 0,0.09532 -0.0312,0.17331 -0.06932,0.17331 -0.03813,0 -0.06932,0.06239 -0.06932,0.138649 0,0.07626 -0.0312,0.138648 -0.06932,0.138648 -0.03813,0 -0.06932,0.07799 -0.06932,0.17331 0,0.09532 -0.0234,0.173554 -0.05199,0.173851 -0.06226,6.24e-4 -0.225303,0.336349 -0.225303,0.463886 0,0.04959 -0.0312,0.09017 -0.06932,0.09017 -0.03813,0 -0.06932,0.04679 -0.06932,0.103986 0,0.05719 -0.0312,0.103986 -0.06932,0.103986 -0.03813,0 -0.06932,0.06239 -0.06932,0.138648 0,0.07626 -0.0312,0.138649 -0.06932,0.138649 -0.03813,0 -0.06932,0.04679 -0.06932,0.103986 0,0.05719 -0.0312,0.103986 -0.06932,0.103986 -0.03813,0 -0.06932,0.0481 -0.06932,0.106885 0,0.05879 -0.06239,0.173854 -0.138648,0.255706 -0.07626,0.08185 -0.138648,0.189733 -0.138648,0.239735 0,0.05 -0.0312,0.09091 -0.06932,0.09091 -0.03813,0 -0.06932,0.05551 -0.06932,0.123344 0,0.06784 -0.06239,0.168313 -0.138648,0.223276 -0.07626,0.05496 -0.138649,0.141257 -0.138649,0.191765 0,0.05051 -0.07799,0.169823 -0.17331,0.265144 -0.09532,0.09532 -0.17331,0.199789 -0.17331,0.232152 0,0.03236 -0.09359,0.159027 -0.207972,0.281477 -0.114385,0.122449 -0.207972,0.247232 -0.207972,0.277296 0,0.03006 -0.08579,0.147802 -0.190642,0.261642 -0.104852,0.113839 -0.331022,0.37362 -0.502599,0.57729 -0.401562,0.476674 -1.526682,1.601794 -2.003356,2.003356 -0.20367,0.171577 -0.463451,0.397747 -0.57729,0.502599 -0.11384,0.104853 -0.231578,0.190642 -0.261642,0.190642 -0.03006,0 -0.154847,0.09359 -0.277296,0.207972 -0.12245,0.114385 -0.249114,0.207972 -0.281477,0.207972 -0.03236,0 -0.136831,0.07799 -0.232152,0.17331 -0.09532,0.09532 -0.214635,0.17331 -0.265144,0.17331 -0.05051,0 -0.136802,0.06239 -0.191765,0.138649 -0.05496,0.07626 -0.155437,0.138648 -0.223276,0.138648 -0.06784,0 -0.123344,0.02741 -0.123344,0.06091 0,0.0335 -0.09359,0.09968 -0.207972,0.147058 -0.114385,0.04738 -0.207973,0.113556 -0.207973,0.147059 0,0.0335 -0.0481,0.06091 -0.106884,0.06091 -0.05879,0 -0.173855,0.06239 -0.255706,0.138649 -0.08185,0.07626 -0.205331,0.138648 -0.274398,0.138648 -0.06907,0 -0.125577,0.0312 -0.125577,0.06932 0,0.03813 -0.04679,0.06932 -0.103986,0.06932 -0.05719,0 -0.103986,0.0312 -0.103986,0.06932 0,0.03813 -0.06239,0.06932 -0.138648,0.06932 -0.07626,0 -0.138648,0.0312 -0.138648,0.06932 0,0.03813 -0.06055,0.06932 -0.134557,0.06932 -0.07401,0 -0.153837,0.0312 -0.177402,0.06932 -0.02356,0.03813 -0.103395,0.06932 -0.177401,0.06932 -0.07401,0 -0.134557,0.0312 -0.134557,0.06932 0,0.03813 -0.06239,0.06932 -0.138648,0.06932 -0.07626,0 -0.138649,0.03119 -0.138649,0.06932 0,0.03813 -0.07799,0.06932 -0.17331,0.06932 -0.09532,0 -0.17331,0.0312 -0.17331,0.06932 0,0.03813 -0.06055,0.06932 -0.134557,0.06932 -0.07401,0 -0.153837,0.0312 -0.177401,0.06932 -0.02356,0.03813 -0.118994,0.06932 -0.212064,0.06932 -0.09307,0 -0.169219,0.0312 -0.169219,0.06932 0,0.03813 -0.07799,0.06932 -0.17331,0.06932 -0.09532,0 -0.17331,0.0312 -0.17331,0.06932 0,0.03813 -0.09359,0.06933 -0.207973,0.06933 -0.114384,0 -0.207972,0.03119 -0.207972,0.06932 0,0.03813 -0.09359,0.06932 -0.207972,0.06932 -0.114385,0 -0.207972,0.0312 -0.207972,0.06932 0,0.03813 -0.109186,0.06932 -0.242635,0.06932 -0.133449,0 -0.242634,0.0312 -0.242634,0.06932 0,0.03813 -0.109185,0.06932 -0.242634,0.06932 -0.133449,0 -0.242635,0.0312 -0.242635,0.06932 0,0.03813 -0.15782,0.06932 -0.350712,0.06932 -0.216154,0 -0.334273,0.0266 -0.307867,0.06932 0.0266,0.04304 -0.103266,0.06932 -0.342528,0.06932 -0.211956,0 -0.385374,0.0312 -0.385374,0.06932 0,0.03851 -0.184865,0.06932 -0.415945,0.06932 -0.23108,0 -0.415945,0.03081 -0.415945,0.06932 0,0.04181 -0.28885,0.06932 -0.727902,0.06932 -0.439053,0 -0.727903,0.02751 -0.727903,0.06932 C 25.213224,43.974251 24.762617,44 24.000052,44 23.237487,44 22.78688,43.97425 22.78688,43.93068 Z"
     id="path1261"
     inkscape:connector-curvature="0" />
</svg>
