<?xml version="1.0" encoding="UTF-8" standalone="no"?>
<!-- Created with Inkscape (http://www.inkscape.org/) -->

<svg
   xmlns:dc="http://purl.org/dc/elements/1.1/"
   xmlns:cc="http://creativecommons.org/ns#"
   xmlns:rdf="http://www.w3.org/1999/02/22-rdf-syntax-ns#"
   xmlns:svg="http://www.w3.org/2000/svg"
   xmlns="http://www.w3.org/2000/svg"
   xmlns:sodipodi="http://sodipodi.sourceforge.net/DTD/sodipodi-0.dtd"
   xmlns:inkscape="http://www.inkscape.org/namespaces/inkscape"
   version="1.1"
   id="svg959"
   width="48"
   height="48"
   viewBox="0 0 48 48"
   sodipodi:docname="icon_metrobus.svg"
   inkscape:version="0.92.2 2405546, 2018-03-11">
  <metadata
     id="metadata965">
    <rdf:RDF>
      <cc:Work
         rdf:about="">
        <dc:format>image/svg+xml</dc:format>
        <dc:type
           rdf:resource="http://purl.org/dc/dcmitype/StillImage" />
        <dc:title></dc:title>
      </cc:Work>
    </rdf:RDF>
  </metadata>
  <defs
     id="defs963" />
  <sodipodi:namedview
     pagecolor="#ffffff"
     bordercolor="#666666"
     borderopacity="1"
     objecttolerance="10"
     gridtolerance="10"
     guidetolerance="10"
     inkscape:pageopacity="0"
     inkscape:pageshadow="2"
     inkscape:window-width="1280"
     inkscape:window-height="968"
     id="namedview961"
     showgrid="false"
     fit-margin-top="0"
     fit-margin-left="0"
     fit-margin-right="0"
     fit-margin-bottom="0"
     inkscape:zoom="4.2922622"
     inkscape:cx="35.638879"
     inkscape:cy="54.556149"
     inkscape:window-x="0"
     inkscape:window-y="24"
     inkscape:window-maximized="1"
     inkscape:current-layer="svg959" />
  <path
     style="fill:#000000;stroke-width:0.11026684"
     d="M 6.9050457,38.954007 C 5.7032278,38.79945 4.7483925,38.094317 4.2337428,36.981282 3.9989797,36.47356 3.9980753,36.436331 4.0003758,27.37457 l 0.00231,-9.097014 0.2540826,-0.716735 c 0.629116,-1.774655 1.5758633,-2.784206 3.0586178,-3.261512 0.3732826,-0.120163 1.2800606,-0.203709 2.9127574,-0.268369 2.837663,-0.112382 25.105579,-0.123642 28.007778,-0.01417 1.989101,0.07503 2.058626,0.08573 2.789929,0.429033 0.989922,0.464715 1.951509,1.421071 2.406539,2.393447 0.418267,0.893816 0.529143,1.710108 0.5338,3.929928 l 0.0036,1.719759 -1.185369,1.088977 c -1.714417,1.575005 -3.004771,2.83102 -3.004771,2.92481 0,0.04479 0.949578,0.940768 2.110173,1.991053 L 44,30.403393 43.935022,32.00402 c -0.04327,1.066013 -0.139993,1.889114 -0.289569,2.464351 -0.488689,1.879389 -1.584739,3.307815 -3.093931,4.032161 l -0.827001,0.396924 -8.314949,0.03156 -8.31495,0.03156 -0.31343,-0.300286 -0.313432,-0.300285 -2.21e-4,-6.34728 c -1.06e-4,-3.491004 -0.03302,-7.877942 -0.07316,-9.748752 l -0.07297,-3.40147 -1.828946,0.03833 c -1.951114,0.04089 -2.119386,0.08497 -2.528219,0.66226 -0.166205,0.234687 -0.186373,1.13574 -0.221428,9.892266 l -0.03857,9.634061 -0.878927,-0.07667 c -0.483409,-0.04217 -1.116272,-0.147153 -1.406361,-0.2333 -0.706734,-0.209878 -1.467032,-0.899723 -1.84909,-1.677744 l -0.309398,-0.630113 -0.03805,-8.802729 -0.03805,-8.802729 -1.891622,0.03652 c -2.0200662,0.03899 -2.1795863,0.07966 -2.5908956,0.660444 -0.1661997,0.23468 -0.1863703,1.134781 -0.2213803,9.878988 l -0.038515,9.620771 -0.4576811,-0.01446 c -0.2517246,-0.008 -0.7373829,-0.05043 -1.0792408,-0.09439 z M 38.077227,33.717275 c 0.197078,-0.150319 0.472685,-0.458348 0.61246,-0.684508 0.234465,-0.379372 0.254479,-0.536518 0.258552,-2.030087 0.0038,-1.406437 -0.02157,-1.647681 -0.193593,-1.838317 -0.188817,-0.209244 -0.374696,-0.221519 -4.003722,-0.2644 -3.185373,-0.03763 -3.822342,-0.07126 -3.907742,-0.206279 -0.152507,-0.241118 -0.132823,-4.225768 0.02256,-4.566797 l 0.127966,-0.280855 3.814074,-0.0017 c 2.209919,-0.001 3.883637,-0.04565 3.979472,-0.10621 0.135625,-0.08571 0.1654,-0.417906 0.1654,-1.845282 0,-1.915584 -0.08538,-2.224445 -0.752386,-2.721635 -0.306095,-0.228165 -0.397971,-0.23206 -5.474199,-0.23206 -4.922305,0 -5.173695,0.0098 -5.39499,0.210058 -0.231023,0.209072 -0.232084,0.240068 -0.226448,6.616011 0.0062,6.944267 0.04712,7.799605 0.385932,8.05584 0.181804,0.137492 0.985436,0.163042 5.221607,0.16601 l 5.006734,0.0035 z"
     id="path969"
     inkscape:connector-curvature="0" />
</svg>
