<?xml version="1.0" encoding="UTF-8" standalone="no"?>
<!-- Created with Inkscape (http://www.inkscape.org/) -->

<svg
   xmlns:dc="http://purl.org/dc/elements/1.1/"
   xmlns:cc="http://creativecommons.org/ns#"
   xmlns:rdf="http://www.w3.org/1999/02/22-rdf-syntax-ns#"
   xmlns:svg="http://www.w3.org/2000/svg"
   xmlns="http://www.w3.org/2000/svg"
   xmlns:sodipodi="http://sodipodi.sourceforge.net/DTD/sodipodi-0.dtd"
   xmlns:inkscape="http://www.inkscape.org/namespaces/inkscape"
   version="1.1"
   id="svg1384"
   width="48"
   height="48"
   viewBox="0 0 48 48"
   sodipodi:docname="icon_pumabus.svg"
   inkscape:version="0.92.2 2405546, 2018-03-11">
  <metadata
     id="metadata1390">
    <rdf:RDF>
      <cc:Work
         rdf:about="">
        <dc:format>image/svg+xml</dc:format>
        <dc:type
           rdf:resource="http://purl.org/dc/dcmitype/StillImage" />
        <dc:title></dc:title>
      </cc:Work>
    </rdf:RDF>
  </metadata>
  <defs
     id="defs1388" />
  <sodipodi:namedview
     pagecolor="#ffffff"
     bordercolor="#666666"
     borderopacity="1"
     objecttolerance="10"
     gridtolerance="10"
     guidetolerance="10"
     inkscape:pageopacity="0"
     inkscape:pageshadow="2"
     inkscape:window-width="1280"
     inkscape:window-height="968"
     id="namedview1386"
     showgrid="false"
     fit-margin-top="0"
     fit-margin-left="0"
     fit-margin-right="0"
     fit-margin-bottom="0"
     inkscape:zoom="6.5242387"
     inkscape:cx="36.504639"
     inkscape:cy="38.35397"
     inkscape:window-x="0"
     inkscape:window-y="24"
     inkscape:window-maximized="1"
     inkscape:current-layer="svg1384" />
  <path
     style="fill:#000000;stroke-width:0.13648224"
     d="m 17.678524,44.32058 c -0.397677,-0.231625 -0.648289,-0.888345 -0.648289,-1.698815 0,-0.668622 0.05214,-0.820066 0.403174,-1.171102 l 0.403175,-0.403174 5.886304,0.03835 5.886306,0.03835 0.413182,0.462544 c 0.382955,0.428706 0.408842,0.522545 0.353853,1.282749 -0.05157,0.71298 -0.116266,0.87108 -0.494872,1.209363 l -0.435543,0.389159 -5.764223,-0.0041 c -3.660657,-0.0026 -5.851384,-0.05492 -6.003067,-0.143265 z M 11.613277,37.011307 C 11.178921,36.551063 11.016004,35.960691 11.053408,34.98248 11.06202,34.757285 10.4476,32.607689 9.688033,30.205602 8.231478,25.59933 7.7591841,23.873595 7.4159205,21.903427 7.2185319,20.770511 7.1649711,20.652345 6.5217202,19.930634 4.6631526,17.845368 3.475895,13.930816 3.9100895,11.319728 4.224911,9.426505 5.4176282,7.757544 6.9860459,7.015564 8.3003441,6.3938012 9.1842538,6.2233935 11.366223,6.171114 c 1.869869,-0.044803 2.118178,-0.080844 2.866126,-0.4160156 1.314013,-0.5888349 3.830087,-1.3955541 5.263927,-1.687753 4.726574,-0.9632139 9.105022,-0.6347926 14.01572,1.0513008 1.359111,0.4666533 2.637756,0.8077511 3.481332,0.9286975 1.853334,0.2657214 2.803009,0.5295973 3.907185,1.0856523 3.540367,1.7829 4.262258,5.778176 1.929396,10.678176 -0.364046,0.764653 -0.856071,1.672493 -1.093391,2.017424 -0.309043,0.449179 -0.562036,1.13909 -0.891536,2.431226 -0.535462,2.09981 -1.24506,4.280532 -2.399218,7.373226 -0.640708,1.716844 -0.884337,2.591241 -1.091199,3.916369 -0.311342,1.994411 -0.589571,2.951641 -0.98183,3.377935 -0.28049,0.304828 -0.311494,0.307085 -4.218767,0.307085 H 28.217767 L 27.947319,36.79087 c -0.392636,-0.64397 -0.358487,-1.479308 0.08187,-2.002641 l 0.353339,-0.419919 h 2.171582 c 2.004052,0 2.171584,-0.01904 2.171584,-0.246861 0,-0.22293 -1.287538,-10.171607 -1.412411,-10.913564 -0.04243,-0.252114 0.161803,-0.477183 1.092414,-1.203857 1.390568,-1.085835 2.354037,-2.310903 2.700343,-3.433537 l 0.09473,-0.307085 h -3.271785 -3.271784 l 0.0595,0.511809 c 0.143586,1.235176 1.006387,10.760722 1.006387,11.110772 v 0.387856 h -5.664017 c -4.508138,0 -5.664013,-0.03562 -5.664013,-0.174527 0,-0.09599 0.184251,-2.678908 0.409447,-5.739819 0.225196,-3.06091 0.409447,-5.684722 0.409447,-5.830691 0,-0.310074 -0.352949,-0.325119 -4.131381,-0.176101 l -2.264224,0.0893 0.21877,0.558993 c 0.473631,1.210196 1.414767,2.408703 2.799752,3.56539 l 0.649143,0.54214 -0.541178,5.186325 c -0.297647,2.852478 -0.570546,5.38593 -0.606442,5.629892 l -0.06527,0.443567 h 2.151345 c 2.07904,0 2.161428,0.01073 2.45136,0.319351 0.60337,0.642258 0.626594,1.723791 0.05125,2.38681 -0.221865,0.255674 -0.45587,0.274981 -4.056948,0.334732 l -3.821502,0.06341 z"
     id="path1394"
     inkscape:connector-curvature="0" />
</svg>
